<svg width="108" height="141" viewBox="0 0 108 141" fill="none" xmlns="http://www.w3.org/2000/svg">
<path d="M106.199 38.5286C103.866 39.1953 95.7993 38.5286 82.1993 30.5286M76.6993 38.5286C78.866 35.862 82.2489 29.1217 83.6993 24.5286C86.6993 15.0286 85.1993 13.5286 78.6993 11.5286C77.366 9.86196 74.4993 7.32862 73.6993 10.5286C73.5327 9.19526 72.3993 6.72853 69.1993 7.52853C68.366 5.52854 66.3993 1.62856 65.1993 2.02856C63.6993 2.52856 56.6993 7.52853 55.6993 7.52853C54.6993 7.52853 42.1993 4.5285 34.1993 8.02856M48.1993 41.5286C46.5687 39.4903 43.4091 34.3941 41.6473 28.0286M29.6993 9.52856C32.1994 8.79939 39.4993 15.1286 40.6993 23.5286C40.9209 25.0798 41.2483 26.5868 41.6473 28.0286M29.6993 9.52856C17.6994 13.0286 7.89934 30.1286 18.6993 48.5286M29.6993 9.52856C28.866 13.3619 28.1994 22.2286 32.1994 27.0286M29.6993 9.52856C20.6994 15.2263 18.0993 29.6286 29.6993 44.0286M18.6993 48.5286C18.6993 50.0286 34.6993 51.0286 40.6993 51.0286M18.6993 48.5286C17.1993 53.1952 15.4994 62.6286 20.6994 63.0286C25.8994 63.4286 41.1993 63.1952 48.1993 63.0286C56.6994 63.0286 62.7994 59.2286 67.1994 52.0286M62.1994 49.0286C68.1994 51.1952 80.2994 57.5286 80.6994 65.5286M80.6994 65.5286C81.4744 81.0286 89.1994 87.5286 98.6994 90.0286M80.6994 65.5286C81.6994 62.6952 85.0994 56.9286 90.6994 56.5286M41.6473 28.0286C45.498 29.1952 53.4994 34.7286 54.6994 47.5286M30.6994 68.0286C26.9131 70.7822 20.7572 74.152 17.2887 77.0286M24.6994 83.0286H57.1994C58.1994 83.0286 59.6994 83.0286 59.6994 85.0286V88.5286C59.6994 89.7286 58.6994 90.5286 57.1994 90.5286H18.6994C15.6994 90.5286 14.6994 91.0286 14.6994 88.0286V80.5286C14.6994 79.5315 15.7188 78.3305 17.2887 77.0286M17.2887 77.0286H59.6994C60.0125 77.0001 60.3792 76.9959 60.7719 77.0286M8.19922 89.0286C6.19927 90.1952 1.99936 92.8286 1.19936 94.0286C0.39936 95.2286 2.19936 95.5286 3.19936 95.5286C21.1994 95.5286 57.8994 95.5286 60.6994 95.5286C62.0994 95.5286 63.141 94.8619 63.8744 94.0286M73.1992 66.0286L60.7719 77.0286M60.7719 77.0286C62.6784 77.1869 65.1994 78.2118 65.1994 81.5286C65.1994 85.5286 65.1994 89.8619 65.1994 91.5286C65.0327 92.1952 64.6077 93.1952 63.8744 94.0286M74.1992 81.5286L63.8744 94.0286" stroke="#424242" stroke-width="2" stroke-linecap="round" stroke-linejoin="round"/>
<path d="M6.65965 121.3V136H8.57065V128.692H15.0806V127.726H8.57065V122.455H16.1516V121.3H6.65965ZM27.4615 131.674L29.4775 136H31.5145L24.6685 121.3H23.6185L17.4025 136H18.3685L20.2165 131.674H27.4615ZM27.0205 130.729H20.6155L23.6395 123.652H23.7235L27.0205 130.729ZM47.0423 133.291C45.6143 134.635 43.9203 135.307 41.9603 135.307C40.8683 135.307 39.9023 135.118 39.0623 134.74C38.2223 134.362 37.5223 133.858 36.9623 133.228C36.4023 132.598 35.9753 131.87 35.6813 131.044C35.4013 130.218 35.2613 129.357 35.2613 128.461C35.2613 127.509 35.4083 126.641 35.7023 125.857C36.0103 125.059 36.4373 124.373 36.9833 123.799C37.5293 123.225 38.1733 122.777 38.9153 122.455C39.6713 122.133 40.4903 121.972 41.3723 121.972C41.9743 121.972 42.5203 122.042 43.0103 122.182C43.5143 122.322 43.9553 122.504 44.3333 122.728C44.7253 122.952 45.0403 123.211 45.2783 123.505C45.5303 123.785 45.7053 124.072 45.8033 124.366H47.3573C47.1473 123.89 46.8743 123.449 46.5383 123.043C46.2163 122.637 45.8103 122.287 45.3203 121.993C44.8303 121.699 44.2563 121.468 43.5983 121.3C42.9403 121.132 42.1913 121.048 41.3513 121.048C40.1333 121.048 39.0203 121.223 38.0123 121.573C37.0183 121.923 36.1643 122.427 35.4503 123.085C34.7363 123.729 34.1833 124.513 33.7913 125.437C33.3993 126.347 33.2033 127.369 33.2033 128.503C33.2033 129.483 33.3573 130.442 33.6653 131.38C33.9873 132.304 34.4773 133.13 35.1353 133.858C35.7933 134.572 36.6333 135.153 37.6553 135.601C38.6773 136.035 39.8953 136.252 41.3093 136.252C42.2053 136.252 43.0033 136.168 43.7033 136C44.4173 135.832 45.0333 135.629 45.5513 135.391C46.0833 135.139 46.5243 134.873 46.8743 134.593C47.2243 134.313 47.4903 134.068 47.6723 133.858L47.0423 133.291ZM51.4479 121.3V136H53.3589V121.3H51.4479ZM67.4107 131.674L69.4267 136H71.4637L64.6177 121.3H63.5677L57.3517 136H58.3177L60.1657 131.674H67.4107ZM66.9697 130.729H60.5647L63.5887 123.652H63.6727L66.9697 130.729ZM74.6225 136V121.3H76.5335V134.845H84.1145V136H74.6225ZM85.5124 132.283C85.5404 132.885 85.6944 133.431 85.9744 133.921C86.2684 134.411 86.6604 134.831 87.1504 135.181C87.6544 135.517 88.2424 135.783 88.9144 135.979C89.5864 136.161 90.3214 136.252 91.1194 136.252C91.9314 136.252 92.6594 136.154 93.3034 135.958C93.9614 135.762 94.5214 135.482 94.9834 135.118C95.4454 134.754 95.8024 134.313 96.0544 133.795C96.3064 133.277 96.4324 132.703 96.4324 132.073C96.4324 131.205 96.2154 130.498 95.7814 129.952C95.3474 129.392 94.8014 128.93 94.1434 128.566C93.4994 128.188 92.7924 127.873 92.0224 127.621C91.2664 127.369 90.5594 127.103 89.9014 126.823C89.2574 126.543 88.7184 126.221 88.2844 125.857C87.8504 125.493 87.6334 125.01 87.6334 124.408C87.6334 124.072 87.7034 123.757 87.8434 123.463C87.9974 123.169 88.2144 122.917 88.4944 122.707C88.7884 122.483 89.1454 122.308 89.5654 122.182C89.9854 122.042 90.4684 121.972 91.0144 121.972C91.9244 121.972 92.6944 122.168 93.3244 122.56C93.9684 122.938 94.3464 123.54 94.4584 124.366H95.8864C95.8024 123.848 95.6134 123.386 95.3194 122.98C95.0254 122.56 94.6544 122.21 94.2064 121.93C93.7584 121.636 93.2474 121.419 92.6734 121.279C92.1134 121.125 91.5254 121.048 90.9094 121.048C90.2654 121.048 89.6494 121.132 89.0614 121.3C88.4874 121.468 87.9764 121.713 87.5284 122.035C87.0944 122.357 86.7444 122.763 86.4784 123.253C86.2264 123.743 86.1004 124.303 86.1004 124.933C86.1004 125.759 86.3104 126.424 86.7304 126.928C87.1504 127.432 87.6754 127.852 88.3054 128.188C88.9494 128.524 89.6424 128.811 90.3844 129.049C91.1264 129.287 91.8124 129.56 92.4424 129.868C93.0864 130.162 93.6184 130.526 94.0384 130.96C94.4584 131.394 94.6684 131.975 94.6684 132.703C94.6684 133.613 94.3324 134.278 93.6604 134.698C93.0024 135.118 92.1204 135.328 91.0144 135.328C90.1324 135.328 89.4254 135.216 88.8934 134.992C88.3614 134.754 87.9554 134.474 87.6754 134.152C87.3954 133.83 87.2064 133.501 87.1084 133.165C87.0104 132.815 86.9544 132.521 86.9404 132.283H85.5124Z" fill="#424242"/>
</svg>
