<svg width="109" height="141" viewBox="0 0 109 141" fill="none" xmlns="http://www.w3.org/2000/svg">
<path d="M78.5005 42.9395C77.3338 40.4395 74.4005 34.9395 72.0005 32.9395M70.0004 35.9395C71.0004 37.2728 72.8005 41.1395 72.0005 45.9395C71.2005 50.7395 68.0004 50.2728 66.5004 49.4395C63.8338 47.6061 58.5005 44.4395 57.0004 44.4395C55.4193 44.4395 54.0005 45.9394 54.5004 46.9395C55.0003 47.9395 60.1233 51.1239 61.0004 52.4395C62.0004 53.9395 66.3905 59.6516 68.0004 60.9395C70.5004 62.9395 72.6671 66.1061 74.0004 68.4395" stroke="#424242" stroke-width="2" stroke-linecap="round" stroke-linejoin="round"/>
<path d="M85.9997 66.4394C85 41.9395 87.4815 39.2699 88.9997 32.4394C90 27.9395 87.5003 27.9394 86.5 30.4394L84 36.9395M82 40.4395C81 38.4395 78.5 34.4395 77 33.9395C74.6918 33.17 71.6667 32.7728 70.5 32.4394" stroke="#424242" stroke-width="2" stroke-linecap="round" stroke-linejoin="round"/>
<path d="M41.0001 52.4395C39.5001 56.9395 37.1001 66.7395 39.5001 69.9395C41.9001 73.1395 45.1667 71.2728 46.5 69.9395C48 68.2728 51.6 65.1395 54 65.9395C56.4 66.7395 56.6667 67.6061 56.5 67.9395C54 69.7728 49.6656 73.941 49 74.9395C48 76.4395 46 79.9395 44.5 81.9395C43.5587 83.1946 40.7002 85.2395 39.5001 86.4395C38 87.9395 37 91.4395 37 92.4395" stroke="#424242" stroke-width="2" stroke-linecap="round" stroke-linejoin="round"/>
<path d="M42.5 67.4394C44 55.4394 40.3 50.2394 37.5 41.4394C33.5 33.4394 34.5002 27.9394 37.5 19.4394C37.8333 18.4394 38.5 16.2394 38.5 15.4394M41.5 15.9394C37.5 15.9394 34.5 11.9394 36 4.93943C37.5 -0.0606945 46 -1.06057 47 6.43943C47.4667 9.93945 46.7 14.8394 45.5 16.4394C46.5 16.4394 48.7 16.6395 49.5 17.4395M49.5 3.43945C51.6667 2.7728 56 3.43945 54.5 8.93945C53.0831 14.1349 52.5 14.9395 52.5 18.4395L55.5 19.4394M57.5 7.43945C60.5 7.43945 62.7 8.93945 59.5 14.9395C58.8333 16.4395 57.8 19.7395 59 20.9395L60.5 21.9395M63.5 12.4395C65.1667 12.4394 67.8 13.8394 65 19.4394C62.75 23.9395 63.5 23.9395 65 24.9395M68.5 18.4395C72 19.4394 71.2 21.9395 68 25.9395C72 31.9395 68.8 35.1395 68 43.9395M65.5 65.9395C65.5 82.9395 63.7 95.3395 52.5 94.9395C49.3333 94.9395 42.7 93.6395 41.5 88.4395M26 90.9395C27.5 84.9395 26 71.9395 26 69.9395C26 62.4395 30 57.1395 36 53.9395M30.5 67.4394C31 65.4395 31.5 63.9395 33.5 59.9395C35.5 55.9395 38.5 51.9395 40.0138 48.4395" stroke="#424242" stroke-width="2" stroke-linecap="round" stroke-linejoin="round"/>
<path d="M51.4997 50.9395C50.1664 47.6061 49.6997 40.7395 58.4997 39.9395" stroke="#424242" stroke-width="2" stroke-linecap="round" stroke-linejoin="round"/>
<path d="M4.26636 121.3H2.83836V136H3.76236V124.009H3.84636L10.3354 136.252H10.7134L17.3494 124.093H17.4334V136H19.3444V121.3H17.8954L11.0914 133.921H11.0074L4.26636 121.3ZM32.5611 131.674L34.5771 136H36.6141L29.7681 121.3H28.7181L22.5021 136H23.4681L25.3161 131.674H32.5611ZM32.1201 130.729H25.7151L28.7391 123.652H28.8231L32.1201 130.729ZM38.0299 132.283C38.0579 132.885 38.2119 133.431 38.4919 133.921C38.7859 134.411 39.1779 134.831 39.6679 135.181C40.1719 135.517 40.7599 135.783 41.4319 135.979C42.1039 136.161 42.8389 136.252 43.6369 136.252C44.4489 136.252 45.1769 136.154 45.8209 135.958C46.4789 135.762 47.0389 135.482 47.5009 135.118C47.9629 134.754 48.3199 134.313 48.5719 133.795C48.8239 133.277 48.9499 132.703 48.9499 132.073C48.9499 131.205 48.7329 130.498 48.2989 129.952C47.8649 129.392 47.3189 128.93 46.6609 128.566C46.0169 128.188 45.3099 127.873 44.5399 127.621C43.7839 127.369 43.0769 127.103 42.4189 126.823C41.7749 126.543 41.2359 126.221 40.8019 125.857C40.3679 125.493 40.1509 125.01 40.1509 124.408C40.1509 124.072 40.2209 123.757 40.3609 123.463C40.5149 123.169 40.7319 122.917 41.0119 122.707C41.3059 122.483 41.6629 122.308 42.0829 122.182C42.5029 122.042 42.9859 121.972 43.5319 121.972C44.4419 121.972 45.2119 122.168 45.8419 122.56C46.4859 122.938 46.8639 123.54 46.9759 124.366H48.4039C48.3199 123.848 48.1309 123.386 47.8369 122.98C47.5429 122.56 47.1719 122.21 46.7239 121.93C46.2759 121.636 45.7649 121.419 45.1909 121.279C44.6309 121.125 44.0429 121.048 43.4269 121.048C42.7829 121.048 42.1669 121.132 41.5789 121.3C41.0049 121.468 40.4939 121.713 40.0459 122.035C39.6119 122.357 39.2619 122.763 38.9959 123.253C38.7439 123.743 38.6179 124.303 38.6179 124.933C38.6179 125.759 38.8279 126.424 39.2479 126.928C39.6679 127.432 40.1929 127.852 40.8229 128.188C41.4669 128.524 42.1599 128.811 42.9019 129.049C43.6439 129.287 44.3299 129.56 44.9599 129.868C45.6039 130.162 46.1359 130.526 46.5559 130.96C46.9759 131.394 47.1859 131.975 47.1859 132.703C47.1859 133.613 46.8499 134.278 46.1779 134.698C45.5199 135.118 44.6379 135.328 43.5319 135.328C42.6499 135.328 41.9429 135.216 41.4109 134.992C40.8789 134.754 40.4729 134.474 40.1929 134.152C39.9129 133.83 39.7239 133.501 39.6259 133.165C39.5279 132.815 39.4719 132.521 39.4579 132.283H38.0299ZM51.1549 132.283C51.1829 132.885 51.3369 133.431 51.6169 133.921C51.9109 134.411 52.3029 134.831 52.7929 135.181C53.2969 135.517 53.8849 135.783 54.5569 135.979C55.2289 136.161 55.9639 136.252 56.7619 136.252C57.5739 136.252 58.3019 136.154 58.9459 135.958C59.6039 135.762 60.1639 135.482 60.6259 135.118C61.0879 134.754 61.4449 134.313 61.6969 133.795C61.9489 133.277 62.0749 132.703 62.0749 132.073C62.0749 131.205 61.8579 130.498 61.4239 129.952C60.9899 129.392 60.4439 128.93 59.7859 128.566C59.1419 128.188 58.4349 127.873 57.6649 127.621C56.9089 127.369 56.2019 127.103 55.5439 126.823C54.8999 126.543 54.3609 126.221 53.9269 125.857C53.4929 125.493 53.2759 125.01 53.2759 124.408C53.2759 124.072 53.3459 123.757 53.4859 123.463C53.6399 123.169 53.8569 122.917 54.1369 122.707C54.4309 122.483 54.7879 122.308 55.2079 122.182C55.6279 122.042 56.1109 121.972 56.6569 121.972C57.5669 121.972 58.3369 122.168 58.9669 122.56C59.6109 122.938 59.9889 123.54 60.1009 124.366H61.5289C61.4449 123.848 61.2559 123.386 60.9619 122.98C60.6679 122.56 60.2969 122.21 59.8489 121.93C59.4009 121.636 58.8899 121.419 58.3159 121.279C57.7559 121.125 57.1679 121.048 56.5519 121.048C55.9079 121.048 55.2919 121.132 54.7039 121.3C54.1299 121.468 53.6189 121.713 53.1709 122.035C52.7369 122.357 52.3869 122.763 52.1209 123.253C51.8689 123.743 51.7429 124.303 51.7429 124.933C51.7429 125.759 51.9529 126.424 52.3729 126.928C52.7929 127.432 53.3179 127.852 53.9479 128.188C54.5919 128.524 55.2849 128.811 56.0269 129.049C56.7689 129.287 57.4549 129.56 58.0849 129.868C58.7289 130.162 59.2609 130.526 59.6809 130.96C60.1009 131.394 60.3109 131.975 60.3109 132.703C60.3109 133.613 59.9749 134.278 59.3029 134.698C58.6449 135.118 57.7629 135.328 56.6569 135.328C55.7749 135.328 55.0679 135.216 54.5359 134.992C54.0039 134.754 53.5979 134.474 53.3179 134.152C53.0379 133.83 52.8489 133.501 52.7509 133.165C52.6529 132.815 52.5969 132.521 52.5829 132.283H51.1549ZM74.1919 131.674L76.2079 136H78.2449L71.3989 121.3H70.3489L64.1329 136H65.0989L66.9469 131.674H74.1919ZM73.7509 130.729H67.3459L70.3699 123.652H70.4539L73.7509 130.729ZM94.7808 129.448H90.6228V130.309H92.9748V134.11C92.3448 134.516 91.7008 134.817 91.0428 135.013C90.3848 135.209 89.6358 135.307 88.7958 135.307C87.6898 135.307 86.7238 135.139 85.8978 134.803C85.0718 134.467 84.3858 134.005 83.8398 133.417C83.2938 132.815 82.8808 132.108 82.6008 131.296C82.3348 130.47 82.2018 129.567 82.2018 128.587C82.2018 127.621 82.3278 126.732 82.5798 125.92C82.8458 125.108 83.2378 124.408 83.7558 123.82C84.2738 123.232 84.9038 122.777 85.6458 122.455C86.4018 122.133 87.2768 121.972 88.2708 121.972C88.9288 121.972 89.5448 122.042 90.1188 122.182C90.6928 122.322 91.2038 122.504 91.6518 122.728C92.0998 122.952 92.4638 123.211 92.7438 123.505C93.0378 123.785 93.2268 124.072 93.3108 124.366H94.8228C94.6968 124.058 94.4798 123.715 94.1718 123.337C93.8778 122.945 93.4718 122.581 92.9538 122.245C92.4358 121.909 91.7918 121.629 91.0218 121.405C90.2658 121.167 89.3698 121.048 88.3338 121.048C87.1438 121.048 86.0448 121.216 85.0368 121.552C84.0428 121.888 83.1818 122.371 82.4538 123.001C81.7258 123.631 81.1588 124.408 80.7528 125.332C80.3468 126.242 80.1438 127.278 80.1438 128.44C80.1438 129.434 80.2978 130.4 80.6058 131.338C80.9278 132.262 81.4108 133.095 82.0548 133.837C82.7128 134.565 83.5458 135.153 84.5538 135.601C85.5618 136.035 86.7658 136.252 88.1658 136.252C89.2158 136.252 90.1468 136.14 90.9588 135.916C91.7708 135.678 92.4428 135.419 92.9748 135.139V136H94.7808V129.448ZM98.5688 121.3V136H108.061V134.845H100.48V128.692H106.99V127.726H100.48V122.455H108.061V121.3H98.5688Z" fill="#424242"/>
</svg>
