<svg width="91" height="135" viewBox="0 0 91 135" fill="none" xmlns="http://www.w3.org/2000/svg">
<path d="M71.9603 73C70.8575 72.8259 69.6793 72.7057 68.4604 72.6323M75.4604 76C68.9251 78.3066 51.3978 78.0269 49.1557 76.2262M49.1557 76.2262C49.065 76.1533 48.9992 76.0778 48.9603 76C47.5461 74.2322 59.1797 72.0737 68.4604 72.6323M49.1557 76.2262C49.424 80.4841 52.3604 89 61.9604 89C71.5604 89 74.9604 80.4841 75.4604 76.2262C75.4604 64.5 74.4604 42.4999 79.4604 40C80.4604 39.5 82.2807 39.3515 84.9604 40.5C88.4604 42 90.9604 36.5 87.4604 34C84.9604 32.8333 78.6604 31.5 73.4604 35.5C68.2604 39.5 67.9604 61.9215 68.4604 72.6323" stroke="#424242" stroke-width="2" stroke-linecap="round" stroke-linejoin="round"/>
<path d="M49.9606 88.0001L14.9606 87.0001C12.4606 87.0001 10.3606 86.1001 9.96064 82.5001C9.56087 78.9001 10.4608 78.5001 12.9606 78.5001M12.9606 78.5001C14.4816 78.5001 41.0609 80.0001 43.4609 80.0001M12.9606 78.5001C11.294 76.1668 7.96079 69.6001 7.96079 62.0001M64.4608 62.5001C49.6275 63.1668 17.3608 63.9001 6.96079 61.5001C2.62746 60.5001 2.96036 52 6.96079 53.0001M6.96079 53.0001C22.4604 55.5 54.0612 54.9 64.4608 54.5M6.96079 53.0001C6.62731 46.0001 5.76036 31.5 4.96036 29.5C3.96036 27 -4.53878 1 6.96079 1C16.9604 1 15.4604 14.5 15.4604 21.5C15.4604 23.6667 15.4604 28.3 15.4604 29.5" stroke="#424242" stroke-width="2" stroke-linecap="round" stroke-linejoin="round"/>
<path d="M11.4609 12C11.4609 13.3304 11.0673 14.4942 10.4806 15.3009C9.89321 16.1086 9.16675 16.5 8.46094 16.5C7.75513 16.5 7.02866 16.1086 6.44125 15.3009C5.85454 14.4942 5.46094 13.3304 5.46094 12C5.46094 10.6696 5.85454 9.5058 6.44125 8.69908C7.02866 7.89139 7.75513 7.5 8.46094 7.5C9.16675 7.5 9.89321 7.89139 10.4806 8.69908C11.0673 9.5058 11.4609 10.6696 11.4609 12Z" stroke="#424242" stroke-width="2"/>
<path d="M32.9605 33.5C24.4605 33.3333 7.16053 34 5.96053 38C4.76053 42 45.4605 41.6667 65.9605 41M68.9604 34.5C61.4604 33.5 52.4604 33.5 48.4604 33.5M37.9604 33C37.7938 32 38.1604 29.6 40.9604 28C43.7604 26.4 44.4604 23.3333 44.4604 22C44.4604 21 43.7604 18.6 40.9604 17C38.1604 15.4 37.7938 13.3333 37.9604 12.5M49.9604 24C49.7938 24.8333 49.4604 26.5 47.4604 28C45.4604 29.5 44.4604 32.5 44.4604 33.5" stroke="#424242" stroke-width="2" stroke-linecap="round" stroke-linejoin="round"/>
<path d="M9.61326 115.3V130H11.5243V123.511H12.4483C12.8403 123.511 13.1623 123.546 13.4143 123.616C13.6803 123.686 13.9183 123.805 14.1283 123.973C14.3383 124.141 14.5343 124.358 14.7163 124.624C14.8983 124.89 15.1153 125.219 15.3673 125.611L17.0263 128.068C17.2363 128.39 17.4393 128.684 17.6353 128.95C17.8453 129.216 18.0693 129.447 18.3073 129.643C18.5453 129.825 18.8113 129.972 19.1053 130.084C19.4133 130.196 19.7773 130.252 20.1973 130.252C20.5053 130.252 20.7573 130.238 20.9533 130.21C21.1493 130.182 21.3453 130.112 21.5413 130V129.223C21.4713 129.237 21.4013 129.251 21.3313 129.265C21.2613 129.265 21.1913 129.265 21.1213 129.265C20.8273 129.265 20.5683 129.223 20.3443 129.139C20.1203 129.055 19.9103 128.936 19.7143 128.782C19.5183 128.614 19.3293 128.418 19.1473 128.194C18.9653 127.956 18.7763 127.69 18.5803 127.396C17.9923 126.542 17.5373 125.863 17.2153 125.359C16.8933 124.841 16.6343 124.442 16.4383 124.162C16.2563 123.882 16.1023 123.679 15.9763 123.553C15.8643 123.427 15.7243 123.322 15.5563 123.238L15.3463 123.133V123.049C16.0183 123.007 16.5923 122.86 17.0683 122.608C17.5583 122.356 17.9573 122.041 18.2653 121.663C18.5733 121.285 18.7973 120.879 18.9373 120.445C19.0773 119.997 19.1473 119.563 19.1473 119.143C19.1473 118.765 19.0703 118.352 18.9163 117.904C18.7763 117.456 18.5243 117.043 18.1603 116.665C17.8103 116.273 17.3273 115.951 16.7113 115.699C16.0953 115.433 15.3183 115.3 14.3803 115.3H9.61326ZM11.5243 116.224H13.6453C14.1773 116.224 14.6533 116.301 15.0733 116.455C15.5073 116.609 15.8783 116.826 16.1863 117.106C16.4943 117.372 16.7253 117.694 16.8793 118.072C17.0473 118.45 17.1313 118.863 17.1313 119.311C17.1313 119.689 17.0543 120.074 16.9003 120.466C16.7603 120.844 16.5433 121.194 16.2493 121.516C15.9553 121.824 15.5913 122.076 15.1573 122.272C14.7373 122.468 14.2473 122.566 13.6873 122.566H11.5243V116.224ZM24.6865 115.3V130H34.1785V128.845H26.5975V122.692H33.1075V121.726H26.5975V116.455H34.1785V115.3H24.6865ZM37.3193 130V115.3H39.2303V128.845H46.8113V130H37.3193ZM58.1211 125.674L60.1371 130H62.1741L55.3281 115.3H54.2781L48.0621 130H49.0281L50.8761 125.674H58.1211ZM57.6801 124.729H51.2751L54.2991 117.652H54.3831L57.6801 124.729ZM65.795 115.3H63.443L69.176 122.671L63.548 130H64.682L69.701 123.427H69.785L74.909 130H77.282L70.919 121.873L75.938 115.3H74.825L70.394 121.075H70.289L65.795 115.3Z" fill="#424242"/>
</svg>
